<?xml version="1.0" encoding="UTF-8"?>
<!DOCTYPE svg PUBLIC "-//W3C//DTD SVG 1.1//EN" "http://www.w3.org/Graphics/SVG/1.1/DTD/svg11.dtd">
<!-- Creator: CorelDRAW 2019 (64-Bit) -->
<svg xmlns="http://www.w3.org/2000/svg" xml:space="preserve" width="340px" height="263px" version="1.1" style="shape-rendering:geometricPrecision; text-rendering:geometricPrecision; image-rendering:optimizeQuality; fill-rule:evenodd; clip-rule:evenodd"
viewBox="0 0 344.68 266.9"
 xmlns:xlink="http://www.w3.org/1999/xlink"
 xmlns:xodm="http://www.corel.com/coreldraw/odm/2003">
 <defs>
  <style type="text/css">
   <![CDATA[
    .str0 {stroke:black;stroke-width:9.52;stroke-miterlimit:22.9256}
    .fil0 {fill:none}
    .fil2 {fill:#336666}
    .fil1 {fill:#33CC99}
   ]]>
  </style>
 </defs>
 <g id="Layer_x0020_1">
  <metadata id="CorelCorpID_0Corel-Layer"/>
  <rect class="fil0" width="344.67" height="266.9"/>
  <path class="fil1 str0" d="M73.26 199.14c33.91,-31.62 35.7,-25.49 98.16,-25.49 17.01,0 46.75,-1.62 62.26,1.31 22.48,4.25 25.96,13.17 38.2,24.08 2.6,-20.44 2.53,-112.61 -3.19,-129.33 -5.79,-16.92 -19.37,-29.32 -32.62,-36.37 -20.1,-10.69 -37.48,-8.38 -62.11,-8.38 -51.83,0.02 -80.64,4.11 -96.68,42.94 -7.1,17.17 -7.02,108.91 -4.02,131.24l0 0z"/>
  <path class="fil2 str0" d="M308.4 236.57l0 -131.53c-49.13,-27.35 1.45,103.64 -35.12,120.53 -7.76,-20.07 -11.86,-31.84 -31.09,-39.61 -14.94,-6.05 -52.16,-3.91 -70.77,-3.91 -40.16,0 -78.53,-7.76 -95.09,31.19 -1.05,2.5 -1.94,5.08 -2.97,6.94 -2.37,4.34 -1.09,2.4 -3.4,4.6 -26.52,-18.06 -1.14,-94.8 -15.12,-122.94 -18.95,-3.2 -18.65,8.27 -18.49,23.79l-0.08 98.59c0.69,19.98 10.92,24.19 23.54,7.59 23.21,10.82 57.49,5.53 93.84,6.49l0.26 0.26 37.28 -0.51 0 0c27.92,0.26 71.43,4.17 94.38,-6.08 7.72,9.69 11.93,14.77 22.83,4.6l0 0z"/>
 </g>
</svg>
