<?xml version="1.0" encoding="UTF-8"?>
<!DOCTYPE svg PUBLIC "-//W3C//DTD SVG 1.1//EN" "http://www.w3.org/Graphics/SVG/1.1/DTD/svg11.dtd">
<!-- Creator: CorelDRAW 2019 (64-Bit) -->
<svg xmlns="http://www.w3.org/2000/svg" xml:space="preserve" width="434px" height="453px" version="1.1" style="shape-rendering:geometricPrecision; text-rendering:geometricPrecision; image-rendering:optimizeQuality; fill-rule:evenodd; clip-rule:evenodd"
viewBox="0 0 506.05 528.74"
 xmlns:xlink="http://www.w3.org/1999/xlink"
 xmlns:xodm="http://www.corel.com/coreldraw/odm/2003">
 <defs>
  <style type="text/css">
   <![CDATA[
    .fil0 {fill:#020202}
   ]]>
  </style>
 </defs>
 <g id="Layer_x0020_1">
  <metadata id="CorelCorpID_0Corel-Layer"/>
  <g id="_3102209515136">
   <path class="fil0" d="M68.76 342.99c63.07,-62.2 66.4,-50.14 182.56,-50.14 31.64,0 86.94,-3.17 115.78,2.59 41.81,8.34 48.28,25.91 71.03,47.36 4.84,-40.21 4.71,-221.49 -5.93,-254.38 -10.75,-33.26 -36.01,-57.66 -60.67,-71.53 -37.37,-21.02 -69.69,-16.48 -115.49,-16.47 -96.39,0.02 -149.95,8.06 -179.79,84.44 -13.2,33.78 -13.05,214.22 -7.49,258.13z"/>
   <path class="fil0" d="M506.05 416.61l0 -258.69c-91.36,-53.79 2.7,203.85 -65.32,237.05 -14.43,-39.47 -22.04,-62.62 -57.79,-77.91 -27.81,-11.89 -97.01,-7.69 -131.62,-7.69 -74.69,0 -146.04,-15.25 -176.82,61.35 -1.98,4.91 -3.62,9.98 -5.53,13.66 -4.42,8.53 -2.03,4.71 -6.33,9.05 -49.32,-35.53 -2.12,-186.46 -28.12,-241.81 -35.23,-6.29 -34.68,16.27 -34.39,46.78l-0.13 193.93c1.26,39.28 20.29,47.57 43.76,14.91 43.17,21.29 106.92,10.89 174.51,12.77l0.37 108.73 69.34 -1 0.11 -108.21c51.91,0.5 132.84,8.2 175.5,-11.96 14.37,19.07 22.19,29.04 42.46,9.04z"/>
  </g>
 </g>
</svg>
