<?xml version="1.0" encoding="UTF-8"?>
<!DOCTYPE svg PUBLIC "-//W3C//DTD SVG 1.1//EN" "http://www.w3.org/Graphics/SVG/1.1/DTD/svg11.dtd">
<!-- Creator: CorelDRAW 2019 (64-Bit) -->
<svg xmlns="http://www.w3.org/2000/svg" xml:space="preserve" width="581px" height="450px" version="1.1" style="shape-rendering:geometricPrecision; text-rendering:geometricPrecision; image-rendering:optimizeQuality; fill-rule:evenodd; clip-rule:evenodd"
viewBox="0 0 580 449.12"
 xmlns:xlink="http://www.w3.org/1999/xlink"
 xmlns:xodm="http://www.corel.com/coreldraw/odm/2003">
 <defs>
  <style type="text/css">
   <![CDATA[
    .str0 {stroke:black;stroke-width:3;stroke-miterlimit:22.9256}
    .fil0 {fill:none}
    .fil1 {fill:gray}
   ]]>
  </style>
 </defs>
 <g id="Layer_x0020_1">
  <metadata id="CorelCorpID_0Corel-Layer"/>
  <rect class="fil0" width="580" height="449.12"/>
  <g id="_3102209494048">
   <path class="fil1 str0" d="M123.27 335.1c57.07,-53.21 60.08,-42.89 165.19,-42.89 28.62,0 78.67,-2.72 104.76,2.21 37.84,7.14 43.69,22.16 64.28,40.52 4.38,-34.41 4.26,-189.5 -5.36,-217.64 -9.74,-28.46 -32.59,-49.33 -54.9,-61.2 -33.82,-17.98 -63.07,-14.09 -104.51,-14.09 -87.22,0.02 -135.69,6.9 -162.69,72.25 -11.95,28.9 -11.81,183.27 -6.77,220.84z"/>
   <path class="fil1 str0" d="M518.96 398.09l0 -221.33c-82.67,-46.02 2.44,174.4 -59.1,202.81 -13.06,-33.77 -19.95,-53.57 -52.31,-66.65 -25.15,-10.18 -87.77,-6.58 -119.09,-6.58 -67.58,0 -132.15,-13.05 -160.01,52.49 -1.78,4.2 -3.27,8.54 -5,11.68 -4,7.3 -1.84,4.04 -5.73,7.74 -44.62,-30.39 -1.92,-159.52 -25.44,-206.88 -31.88,-5.38 -31.38,13.92 -31.12,40.03l-0.12 165.91c1.15,33.61 18.37,40.7 39.6,12.76 39.06,18.21 96.75,9.32 157.91,10.93l0.44 0.43 62.74 -0.85 0 0c46.97,0.43 120.2,7.02 158.81,-10.23 13,16.31 20.08,24.85 38.42,7.74z"/>
  </g>
 </g>
</svg>
