<?xml version="1.0" encoding="UTF-8"?>
<!DOCTYPE svg PUBLIC "-//W3C//DTD SVG 1.1//EN" "http://www.w3.org/Graphics/SVG/1.1/DTD/svg11.dtd">
<!-- Creator: CorelDRAW 2019 (64-Bit) -->
<svg xmlns="http://www.w3.org/2000/svg" xml:space="preserve" width="1254px" height="1254px" version="1.1" style="shape-rendering:geometricPrecision; text-rendering:geometricPrecision; image-rendering:optimizeQuality; fill-rule:evenodd; clip-rule:evenodd"
viewBox="0 0 1253 1253"
 xmlns:xlink="http://www.w3.org/1999/xlink"
 xmlns:xodm="http://www.corel.com/coreldraw/odm/2003">
 <defs>
  <style type="text/css">
   <![CDATA[
    .fil0 {fill:white}
    .fil3 {fill:url(#id0)}
    .fil4 {fill:url(#id1)}
    .fil1 {fill:url(#id2)}
    .fil2 {fill:url(#id3)}
   ]]>
  </style>
  <linearGradient id="id0" gradientUnits="userSpaceOnUse" x1="827.35" y1="697.79" x2="544.35" y2="664.46">
   <stop offset="0" style="stop-opacity:1; stop-color:#C5BF22"/>
   <stop offset="1" style="stop-opacity:1; stop-color:#C5BF22"/>
  </linearGradient>
  <linearGradient id="id1" gradientUnits="userSpaceOnUse" x1="850.82" y1="542.95" x2="591.29" y2="1062.42">
   <stop offset="0" style="stop-opacity:1; stop-color:#C5BF22"/>
   <stop offset="0.509804" style="stop-opacity:1; stop-color:#64964C"/>
   <stop offset="1" style="stop-opacity:1; stop-color:#026D77"/>
  </linearGradient>
  <linearGradient id="id2" gradientUnits="userSpaceOnUse" x1="167.34" y1="609.29" x2="1004.72" y2="559.34">
   <stop offset="0" style="stop-opacity:1; stop-color:#026D77"/>
   <stop offset="1" style="stop-opacity:1; stop-color:#B04999"/>
  </linearGradient>
  <linearGradient id="id3" gradientUnits="userSpaceOnUse" x1="930.61" y1="219.7" x2="651.24" y2="711.05">
   <stop offset="0" style="stop-opacity:1; stop-color:#B04999"/>
   <stop offset="1" style="stop-opacity:1; stop-color:#C5BF22"/>
  </linearGradient>
 </defs>
 <g id="Layer_x0020_1">
  <metadata id="CorelCorpID_0Corel-Layer"/>
  <g id="_3067631966880">
   <circle class="fil0" cx="626.5" cy="626.5" r="626.5"/>
   <g>
    <path class="fil1" d="M986.28 317.68c-19.61,-90.56 -129.45,-54.3 -129.45,-54.3 -3.17,0.98 -6.77,2.25 -10.87,3.9 -73.67,29.86 -146.35,85.9 -222.22,171.35 -42.81,48.28 -81.85,99.47 -116.62,153.29 -55.4,85.42 -100.28,177.21 -133.86,273.38 -17.13,48.97 -49.69,91.64 -94.25,118.41 -37.21,22.39 -69.37,27.24 -83.13,28.16 -4.52,0.45 -7.06,0.34 -7.06,0.34 3.47,-17.7 7.29,-35.25 11.48,-52.74 50.85,-214.53 151.23,-414.57 293.04,-583.56 8.48,-10.13 17.13,-20.2 25.98,-30.1 90.44,-101.82 180.15,-169.92 274.13,-208.02 87.93,-35.63 140.01,-7.84 164.71,14.36 0,0 0.1,0.08 0.1,0.16 1.2,0.98 2.22,1.97 3.25,2.95 7.99,7.74 15.93,17.4 22.34,29.35 15.86,29.21 23.11,71.97 2.43,133.07z"/>
    <path class="fil2" d="M986.28 317.68c-0.07,0.27 -0.22,0.63 -0.3,0.89 -1.26,3.67 -2.61,7.33 -4.04,11.18 -4.53,11.74 -9.24,23.48 -14.13,35.06 -35.25,83.16 -81.26,162.06 -136.1,233.99 -42.82,-8.06 -81.27,-7.38 -113.19,-3.07 -57.95,7.9 -94.52,27.89 -97.06,29.27 83.67,-79.54 152.61,-175.33 201.96,-279.8 7.52,-15.77 14.6,-31.77 21.13,-47.92 2.36,-5.82 4.63,-11.65 6.9,-17.48 2.49,-6.54 4.26,-11.97 5.38,-16.42 0,0 28.47,-9.43 58.99,-6.66 29.46,2.58 60.84,16.5 70.46,60.96z"/>
    <path class="fil3" d="M814.45 776.02c7.35,-9.89 8.94,-15.5 9.01,-18.48 0.06,-6.22 -13.24,-20.62 -32.48,-24.96 -0.62,-0.14 -1.33,-0.27 -2.04,-0.4 -19.04,-3.83 -41.03,-1.61 -63.86,2.75 -13.06,2.46 -26.34,5.63 -39.53,8.71 -30.7,7.3 -62.52,-6.86 -77.6,-34.62 -3.64,-6.61 -5.99,-13.55 -7.29,-20.64 -4.2,-22.84 3.18,-46.73 20.63,-63.28 0,0 0.08,-0.01 0.17,-0.1 2.79,-1.57 49.01,-26.69 120.45,-31.48 2.43,-0.24 4.97,-0.31 7.49,-0.46 12.3,-0.67 25.25,-0.58 38.86,0.25 0,0 23.68,33.99 37.63,74.86 12.67,37.19 17.3,80.03 -11.44,107.85z"/>
    <path class="fil4" d="M963.11 759.52c-0.89,64.35 -41.69,111.01 -77.18,144.4 -52.93,50.03 -111.91,94.12 -174.89,131.38 -122.21,45.76 -183.92,9.2 -211.33,-19.91 -11.97,-12.83 -17.48,-24.22 -18.49,-26.52 -0.11,-0.25 -0.21,-0.43 -0.21,-0.43 114.41,-38.9 221.22,-103.23 309.06,-186.09 11.75,-11.04 19.45,-19.64 24.38,-26.33 60.2,-58.34 -26.19,-182.71 -26.19,-182.71l0.08 0c5.89,0.34 11.87,0.93 17.95,1.7 8.28,0.89 16.75,2.13 25.42,3.79 20.48,5.84 40.74,15.36 58.92,27.98 42.03,29.36 73.37,75.56 72.48,132.74z"/>
   </g>
  </g>
 </g>
</svg>
