<?xml version="1.0" encoding="UTF-8"?>
<!DOCTYPE svg PUBLIC "-//W3C//DTD SVG 1.1//EN" "http://www.w3.org/Graphics/SVG/1.1/DTD/svg11.dtd">
<!-- Creator: CorelDRAW -->
<svg xmlns="http://www.w3.org/2000/svg" xml:space="preserve" width="255.88mm" height="72.9584mm" version="1.1" style="shape-rendering:geometricPrecision; text-rendering:geometricPrecision; image-rendering:optimizeQuality; fill-rule:evenodd; clip-rule:evenodd"
viewBox="0 0 25366.61 7232.72"
 xmlns:xlink="http://www.w3.org/1999/xlink"
 xmlns:xodm="http://www.corel.com/coreldraw/odm/2003">
 <defs>
  <style type="text/css">
   <![CDATA[
    .fil0 {fill:#A9ABAE;fill-rule:nonzero}
   ]]>
  </style>
 </defs>
 <g id="Capa_x0020_1">
  <metadata id="CorelCorpID_0Corel-Layer"/>
  <path class="fil0" d="M14440.9 4225.02c-256.39,0 -458.2,201.81 -458.2,452.74l0 927.29c-5.46,240 -190.92,430.92 -430.92,430.92 -245.46,0 -436.38,-190.92 -436.38,-430.92l0 -927.29c0,-250.93 -201.81,-452.74 -458.2,-452.74 -256.34,0 -452.74,201.81 -452.74,452.74l0 889.11c0,747.31 605.49,1347.32 1347.32,1347.32 730.95,0 1347.32,-600.01 1347.32,-1347.32l0 -889.11c0,-250.93 -207.32,-452.74 -458.2,-452.74zm-2597.44 709.89c-6.88,497.1 -322.09,857.58 -596.25,1115.54 -408.89,386.47 -864.54,727.13 -1351.09,1014.94 -944.09,353.55 -1420.84,71.09 -1632.53,-153.84 -92.54,-99.11 -135.09,-187.08 -142.91,-204.81 -0.8,-1.98 -1.58,-3.32 -1.58,-3.32 883.82,-300.56 1709,-797.54 2387.6,-1437.64 90.77,-85.26 150.2,-151.74 188.3,-203.39 56.84,-76.43 69.07,-119.74 69.67,-142.78 0.45,-48.01 -102.3,-159.31 -250.96,-192.83 -4.82,-1.05 -10.28,-2.06 -15.75,-3.07 -147.08,-29.56 -316.99,-12.43 -493.33,21.29 -100.89,18.98 -203.47,43.48 -305.41,67.28 -237.12,56.35 -482.98,-53 -599.46,-267.53 -28.13,-51 -46.28,-104.65 -56.35,-159.43 -32.39,-176.43 24.57,-361 159.38,-488.84 0,0 0.65,-0.04 1.3,-0.73 646.38,-614.51 1179.03,-1354.48 1560.27,-2161.61 58.09,-121.82 112.75,-245.42 163.23,-370.15 18.22,-45.02 35.75,-90.04 53.28,-135.02 19.22,-50.52 32.87,-92.54 41.58,-126.87 -24.54,7.56 -52.31,17.37 -83.97,30.12 -569.13,230.68 -1130.61,663.62 -1716.78,1323.76 -330.68,372.95 -632.25,768.39 -900.87,1184.17 -428.03,659.94 -774.71,1369.02 -1034.16,2111.95 -132.34,378.37 -383.88,707.95 -728.08,914.79 -287.44,172.95 -535.89,210.4 -642.21,217.52 -34.94,3.53 -54.57,2.68 -54.57,2.68 26.81,-136.8 56.36,-272.38 88.67,-407.47 392.9,-1657.27 1168.33,-3202.68 2263.84,-4508.17 65.51,-78.3 132.38,-156.07 200.72,-232.55 698.72,-786.6 1391.73,-1312.7 2117.78,-1607.02 679.25,-275.25 1081.58,-60.56 1272.42,110.93 0,0 0.73,0.64 0.77,1.29 9.27,7.57 17.16,15.19 25.06,22.8 61.74,59.75 123.07,134.41 172.62,226.67 122.55,225.66 178.49,556.05 18.75,1028.02 -0.53,2.06 -1.71,4.86 -2.27,6.92 -9.75,28.3 -20.2,56.64 -31.22,86.36 -35.01,90.68 -71.37,181.41 -109.18,270.88 -272.34,642.36 -627.75,1251.94 -1051.38,1807.58 158.21,45.11 314.72,118.66 455.17,216.19 324.65,226.83 566.74,583.75 559.89,1025.43zm-8723.41 -743.02c-343.63,0 -654.55,130.93 -889.08,338.21 -234.56,-207.28 -545.48,-338.21 -883.69,-338.21 -736.37,0 -1347.28,600.02 -1347.28,1342.75l0 891.87c0,251.81 201.82,454.56 452.74,454.56 256.39,0 458.2,-202.75 458.2,-454.56l0 -924.58c0,-240.93 190.88,-431.81 436.34,-431.81 234.56,0 430.96,190.88 430.96,431.81l0 924.58c0,251.81 201.81,454.56 452.73,454.56 256.35,0 452.74,-202.75 452.74,-454.56l0 -924.58c5.43,-240.93 196.36,-431.81 436.34,-431.81 234.57,0 430.92,190.88 430.92,431.81l0 924.58c0,251.81 207.32,454.56 452.78,454.56 250.88,0 458.16,-202.75 458.16,-454.56l0 -891.87c0,-742.73 -599.98,-1342.75 -1341.86,-1342.75zm2056.44 0c-250.92,0 -452.73,202.75 -452.73,459.09l0 1770.99c0,256.34 201.81,459.09 452.73,459.09 250.92,0 458.16,-202.75 458.16,-459.09l0 -1770.99c0,-256.34 -207.24,-459.09 -458.16,-459.09zm0 -387.27c250.92,0 458.16,-201.82 458.16,-458.2 0,-245.46 -207.24,-447.28 -458.16,-447.28 -250.92,0 -452.73,201.82 -452.73,447.28 0,256.38 201.81,458.2 452.73,458.2zm11331.74 2225.87c-10.93,0 -21.82,5.46 -32.75,5.46 -147.24,0 -338.17,-174.53 -365.45,-299.99l0 -665.48 370.91 0c250.92,0 458.2,-163.63 458.2,-420.02 0,-245.46 -207.28,-436.34 -458.2,-436.34l-370.91 0 0 -125.5c0,-245.45 -201.82,-447.27 -452.74,-447.27 -256.39,0 -458.2,201.82 -458.2,447.27l0 1647.35c38.18,698.2 632.77,1145.46 1309.14,1167.28 250.92,0 452.73,-179.99 452.73,-436.37 0,-245.46 -201.81,-436.38 -452.73,-436.38zm3370.97 -463.63c0,-736.36 -594.55,-1336.39 -1336.39,-1336.39 -741.84,0 -1336.4,600.02 -1336.4,1336.39 0,736.37 583.67,1336.39 1325.46,1336.39 207.28,0 420.02,-92.7 545.49,-223.63 16.36,109.1 234.56,207.28 349.09,207.28 250.92,0 452.74,-201.82 452.74,-452.74l0 -867.3zm-1336.39 458.2c-240.04,0 -430.92,-218.21 -430.92,-458.2 0,-234.56 190.88,-452.74 430.92,-452.74 239.99,0 430.91,218.18 430.91,452.74 0,240 -190.92,458.2 -430.91,458.2zm2961.87 -927.29c174.57,0 310.93,174.53 490.92,174.53 229.1,0 447.32,-196.36 447.32,-458.2 0,-398.17 -534.6,-599.98 -938.23,-599.98 -736.36,0 -1341.85,599.98 -1341.85,1341.82 0,747.3 605.49,1347.31 1341.85,1347.31l5.47 0c392.73,0 932.76,-190.92 932.76,-594.55 0,-256.38 -218.22,-458.2 -452.78,-458.2 -174.53,0 -305.45,163.64 -485.45,163.64 -234.56,0 -430.91,-212.74 -430.91,-458.2 0,-240 196.35,-458.16 430.91,-458.16zm3861.92 469.09c0,-736.36 -594.59,-1336.39 -1336.43,-1336.39 -741.84,0 -1336.39,600.02 -1336.39,1336.39 0,736.37 583.66,1336.39 1325.49,1336.39 207.28,0 420.02,-92.7 545.45,-223.63 16.4,109.1 234.56,207.28 349.13,207.28 250.93,0 452.74,-201.82 452.74,-452.74l0 -867.3zm-1336.43 458.2c-240,0 -430.92,-218.21 -430.92,-458.2 0,-234.56 190.92,-452.74 430.92,-452.74 240.04,0 430.96,218.18 430.96,452.74 0,240 -190.92,458.2 -430.96,458.2z"/>
 </g>
</svg>
