<?xml version="1.0" encoding="UTF-8"?>
<!DOCTYPE svg PUBLIC "-//W3C//DTD SVG 1.1//EN" "http://www.w3.org/Graphics/SVG/1.1/DTD/svg11.dtd">
<!-- Creator: CorelDRAW -->
<svg xmlns="http://www.w3.org/2000/svg" xml:space="preserve" width="255.88mm" height="72.9584mm" version="1.1" style="shape-rendering:geometricPrecision; text-rendering:geometricPrecision; image-rendering:optimizeQuality; fill-rule:evenodd; clip-rule:evenodd"
viewBox="0 0 26105.29 7443.33"
 xmlns:xlink="http://www.w3.org/1999/xlink"
 xmlns:xodm="http://www.corel.com/coreldraw/odm/2003">
 <defs>
  <style type="text/css">
   <![CDATA[
    .fil0 {fill:#FEFEFE;fill-rule:nonzero}
   ]]>
  </style>
 </defs>
 <g id="Capa_x0020_1">
  <metadata id="CorelCorpID_0Corel-Layer"/>
  <path class="fil0" d="M14861.42 4348.05c-263.86,0 -471.54,207.69 -471.54,465.92l0 954.29c-5.62,246.98 -196.48,443.47 -443.47,443.47 -252.61,0 -449.09,-196.48 -449.09,-443.47l0 -954.29c0,-258.24 -207.69,-465.92 -471.54,-465.92 -263.81,0 -465.92,207.69 -465.92,465.92l0 915c0,769.07 623.12,1386.56 1386.56,1386.56 752.24,0 1386.56,-617.49 1386.56,-1386.56l0 -915c0,-258.24 -213.36,-465.92 -471.54,-465.92zm-2673.08 730.57c-7.08,511.58 -331.47,882.55 -613.61,1148.03 -420.8,397.72 -889.72,748.31 -1390.43,1044.5 -971.58,363.85 -1462.21,73.16 -1680.07,-158.32 -95.24,-101.99 -139.02,-192.52 -147.07,-210.78 -0.83,-2.04 -1.62,-3.42 -1.62,-3.42 909.55,-309.31 1758.77,-820.76 2457.13,-1479.51 93.41,-87.74 154.57,-156.15 193.78,-209.32 58.5,-78.66 71.08,-123.23 71.7,-146.94 0.46,-49.41 -105.28,-163.95 -258.27,-198.44 -4.96,-1.08 -10.58,-2.12 -16.21,-3.16 -151.36,-30.42 -326.22,-12.79 -507.7,21.91 -103.83,19.54 -209.4,44.75 -314.31,69.24 -244.03,57.99 -497.05,-54.54 -616.91,-275.32 -28.95,-52.49 -47.62,-107.69 -57.99,-164.07 -33.33,-181.57 25.28,-371.51 164.02,-503.08 0,0 0.67,-0.04 1.34,-0.75 665.2,-632.4 1213.36,-1393.92 1605.71,-2224.56 59.78,-125.36 116.03,-252.56 167.98,-380.93 18.75,-46.33 36.79,-92.67 54.84,-138.95 19.78,-51.99 33.83,-95.24 42.79,-130.57 -25.25,7.78 -53.84,17.87 -86.41,30.99 -585.71,237.39 -1163.54,682.94 -1766.77,1362.3 -340.31,383.81 -650.66,790.77 -927.1,1218.65 -440.5,679.16 -797.27,1408.89 -1064.28,2173.45 -136.2,389.39 -395.06,728.57 -749.28,941.42 -295.81,177.99 -551.5,216.53 -660.91,223.86 -35.95,3.63 -56.16,2.75 -56.16,2.75 27.59,-140.78 58,-280.31 91.25,-419.34 404.34,-1705.53 1202.36,-3295.94 2329.77,-4639.45 67.42,-80.58 136.24,-160.61 206.56,-239.32 719.07,-809.51 1432.26,-1350.93 2179.45,-1653.82 699.03,-283.26 1113.08,-62.33 1309.48,114.16 0,0 0.75,0.66 0.8,1.33 9.54,7.79 17.66,15.63 25.79,23.46 63.54,61.49 126.65,138.32 177.65,233.27 126.12,232.23 183.69,572.24 19.29,1057.95 -0.54,2.12 -1.75,5 -2.34,7.12 -10.04,29.13 -20.79,58.28 -32.13,88.87 -36.03,93.32 -73.45,186.69 -112.36,278.76 -280.27,661.07 -646.03,1288.4 -1082,1860.22 162.82,46.42 323.89,122.12 468.42,222.49 334.1,233.44 583.25,600.74 576.2,1055.29zm-8977.43 -764.65c-353.64,0 -673.61,134.74 -914.97,348.06 -241.39,-213.32 -561.36,-348.06 -909.42,-348.06 -757.82,0 -1386.51,617.5 -1386.51,1381.85l0 917.84c0,259.15 207.7,467.8 465.92,467.8 263.86,0 471.54,-208.65 471.54,-467.8l0 -951.5c0,-247.94 196.44,-444.39 449.05,-444.39 241.39,0 443.51,196.44 443.51,444.39l0 951.5c0,259.15 207.69,467.8 465.91,467.8 263.82,0 465.92,-208.65 465.92,-467.8l0 -951.5c5.59,-247.94 202.07,-444.39 449.05,-444.39 241.4,0 443.47,196.44 443.47,444.39l0 951.5c0,259.15 213.36,467.8 465.96,467.8 258.19,0 471.5,-208.65 471.5,-467.8l0 -917.84c0,-764.36 -617.46,-1381.85 -1380.93,-1381.85zm2116.33 0c-258.23,0 -465.91,208.65 -465.91,472.46l0 1822.57c0,263.81 207.69,472.46 465.91,472.46 258.23,0 471.5,-208.65 471.5,-472.46l0 -1822.57c0,-263.81 -213.28,-472.46 -471.5,-472.46zm0 -398.55c258.23,0 471.5,-207.7 471.5,-471.54 0,-252.61 -213.28,-460.3 -471.5,-460.3 -258.23,0 -465.91,207.7 -465.91,460.3 0,263.85 207.69,471.54 465.91,471.54zm11661.72 2290.69c-11.25,0 -22.45,5.62 -33.71,5.62 -151.53,0 -348.02,-179.61 -376.09,-308.73l0 -684.86 381.71 0c258.23,0 471.54,-168.4 471.54,-432.26 0,-252.61 -213.32,-449.05 -471.54,-449.05l-381.71 0 0 -129.16c0,-252.6 -207.7,-460.29 -465.92,-460.29 -263.86,0 -471.54,207.7 -471.54,460.29l0 1695.32c39.29,718.53 651.19,1178.82 1347.27,1201.27 258.23,0 465.91,-185.23 465.91,-449.08 0,-252.61 -207.69,-449.09 -465.91,-449.09zm3469.13 -477.13c0,-757.81 -611.86,-1375.3 -1375.3,-1375.3 -763.44,0 -1375.31,617.5 -1375.31,1375.3 0,757.82 600.66,1375.3 1364.06,1375.3 213.32,0 432.26,-95.4 561.37,-230.14 16.83,112.27 241.39,213.32 359.26,213.32 258.23,0 465.92,-207.7 465.92,-465.92l0 -892.56zm-1375.3 471.54c-247.02,0 -443.47,-224.56 -443.47,-471.54 0,-241.39 196.44,-465.92 443.47,-465.92 246.97,0 443.46,224.53 443.46,465.92 0,246.98 -196.48,471.54 -443.46,471.54zm3048.12 -954.29c179.65,0 319.98,179.61 505.21,179.61 235.77,0 460.34,-202.07 460.34,-471.54 0,-409.76 -550.17,-617.46 -965.55,-617.46 -757.81,0 -1380.92,617.46 -1380.92,1380.89 0,769.06 623.12,1386.55 1380.92,1386.55l5.63 0c404.17,0 959.92,-196.48 959.92,-611.86 0,-263.85 -224.57,-471.54 -465.96,-471.54 -179.61,0 -314.35,168.41 -499.59,168.41 -241.39,0 -443.46,-218.94 -443.46,-471.54 0,-246.98 202.06,-471.5 443.46,-471.5zm3974.38 482.75c0,-757.81 -611.91,-1375.3 -1375.34,-1375.3 -763.44,0 -1375.3,617.5 -1375.3,1375.3 0,757.82 600.65,1375.3 1364.09,1375.3 213.32,0 432.26,-95.4 561.33,-230.14 16.87,112.27 241.39,213.32 359.3,213.32 258.24,0 465.92,-207.7 465.92,-465.92l0 -892.56zm-1375.34 471.54c-246.98,0 -443.47,-224.56 -443.47,-471.54 0,-241.39 196.48,-465.92 443.47,-465.92 247.02,0 443.51,224.53 443.51,465.92 0,246.98 -196.48,471.54 -443.51,471.54z"/>
 </g>
</svg>
