<?xml version="1.0" encoding="UTF-8"?>
<!DOCTYPE svg PUBLIC "-//W3C//DTD SVG 1.1//EN" "http://www.w3.org/Graphics/SVG/1.1/DTD/svg11.dtd">
<!-- Creator: CorelDRAW -->
<svg xmlns="http://www.w3.org/2000/svg" xml:space="preserve" width="255.88mm" height="72.9584mm" version="1.1" style="shape-rendering:geometricPrecision; text-rendering:geometricPrecision; image-rendering:optimizeQuality; fill-rule:evenodd; clip-rule:evenodd"
viewBox="0 0 26269.56 7490.17"
 xmlns:xlink="http://www.w3.org/1999/xlink"
 xmlns:xodm="http://www.corel.com/coreldraw/odm/2003">
 <defs>
  <style type="text/css">
   <![CDATA[
    .fil0 {fill:#026D77;fill-rule:nonzero}
    .fil4 {fill:url(#id0)}
    .fil1 {fill:url(#id1)}
    .fil2 {fill:url(#id2)}
    .fil3 {fill:url(#id3)}
   ]]>
  </style>
  <linearGradient id="id0" gradientUnits="userSpaceOnUse" x1="11372.95" y1="3357.42" x2="9292.74" y2="7729.86">
   <stop offset="0" style="stop-opacity:1; stop-color:#C5BF22"/>
   <stop offset="0.509804" style="stop-opacity:1; stop-color:#64964C"/>
   <stop offset="1" style="stop-opacity:1; stop-color:#026D77"/>
  </linearGradient>
  <linearGradient id="id1" gradientUnits="userSpaceOnUse" x1="5897.19" y1="3842.74" x2="12662.5" y2="3434.22">
   <stop offset="0" style="stop-opacity:1; stop-color:#026D77"/>
   <stop offset="1" style="stop-opacity:1; stop-color:#B04999"/>
  </linearGradient>
  <linearGradient id="id2" gradientUnits="userSpaceOnUse" x1="12005.36" y1="772.96" x2="9770.56" y2="4727.37">
   <stop offset="0" style="stop-opacity:1; stop-color:#B04999"/>
   <stop offset="1" style="stop-opacity:1; stop-color:#C5BF22"/>
  </linearGradient>
  <linearGradient id="id3" gradientUnits="userSpaceOnUse" x1="11235.39" y1="4616.98" x2="8871.13" y2="4349.58">
   <stop offset="0" style="stop-opacity:1; stop-color:#C5BF22"/>
   <stop offset="1" style="stop-opacity:1; stop-color:#C5BF22"/>
  </linearGradient>
 </defs>
 <g id="Capa_x0020_1">
  <metadata id="CorelCorpID_0Corel-Layer"/>
  <g id="_2191873565504">
   <path class="fil0" d="M14954.94 4375.41c-265.52,0 -474.51,208.99 -474.51,468.85l0 960.29c-5.66,248.54 -197.72,446.26 -446.26,446.26 -254.2,0 -451.91,-197.72 -451.91,-446.26l0 -960.29c0,-259.86 -208.99,-468.85 -474.51,-468.85 -265.47,0 -468.85,208.99 -468.85,468.85l0 920.76c0,773.91 627.04,1395.28 1395.28,1395.28 756.97,0 1395.28,-621.37 1395.28,-1395.28l0 -920.76c0,-259.86 -214.7,-468.85 -474.51,-468.85zm2140.93 1869.75c-11.32,0 -22.6,5.66 -33.92,5.66 -152.49,0 -350.21,-180.74 -378.46,-310.67l0 -689.17 384.12 0c259.85,0 474.51,-169.46 474.51,-434.98 0,-254.2 -214.66,-451.87 -474.51,-451.87l-384.12 0 0 -129.97c0,-254.18 -209,-463.19 -468.85,-463.19 -265.52,0 -474.51,209 -474.51,463.19l0 1705.99c39.54,723.05 655.29,1186.24 1355.74,1208.83 259.85,0 468.84,-186.4 468.84,-451.9 0,-254.2 -208.99,-451.91 -468.84,-451.91zm3490.96 -480.14c0,-762.57 -615.71,-1383.96 -1383.96,-1383.96 -768.24,0 -1383.97,621.38 -1383.97,1383.96 0,762.59 604.44,1383.96 1372.64,1383.96 214.66,0 434.98,-96 564.91,-231.59 16.94,112.98 242.91,214.66 361.52,214.66 259.85,0 468.85,-209 468.85,-468.85l0 -898.17zm-1383.96 474.51c-248.58,0 -446.26,-225.97 -446.26,-474.51 0,-242.91 197.68,-468.85 446.26,-468.85 248.53,0 446.25,225.94 446.25,468.85 0,248.54 -197.72,474.51 -446.25,474.51zm3067.3 -960.29c180.78,0 321.99,180.74 508.39,180.74 237.26,0 463.24,-203.35 463.24,-474.51 0,-412.34 -553.63,-621.34 -971.63,-621.34 -762.57,0 -1389.61,621.34 -1389.61,1389.58 0,773.9 627.04,1395.27 1389.61,1395.27l5.67 0c406.71,0 965.96,-197.72 965.96,-615.71 0,-265.51 -225.98,-474.51 -468.9,-474.51 -180.74,0 -316.33,169.47 -502.73,169.47 -242.91,0 -446.25,-220.32 -446.25,-474.51 0,-248.54 203.34,-474.47 446.25,-474.47zm3999.39 485.78c0,-762.57 -615.76,-1383.96 -1384,-1383.96 -768.24,0 -1383.96,621.38 -1383.96,1383.96 0,762.59 604.43,1383.96 1372.67,1383.96 214.66,0 434.98,-96 564.87,-231.59 16.98,112.98 242.91,214.66 361.56,214.66 259.86,0 468.85,-209 468.85,-468.85l0 -898.17zm-1384 474.51c-248.54,0 -446.26,-225.97 -446.26,-474.51 0,-242.91 197.72,-468.85 446.26,-468.85 248.58,0 446.3,225.94 446.3,468.85 0,248.54 -197.72,474.51 -446.3,474.51z"/>
   <path class="fil0" d="M3231.11 4341.11c-355.86,0 -677.85,135.59 -920.73,350.25 -242.91,-214.66 -564.9,-350.25 -915.14,-350.25 -762.59,0 -1395.24,621.38 -1395.24,1390.55l0 923.61c0,260.78 209,470.74 468.85,470.74 265.52,0 474.51,-209.97 474.51,-470.74l0 -957.49c0,-249.5 197.68,-447.18 451.87,-447.18 242.91,0 446.3,197.68 446.3,447.18l0 957.49c0,260.78 208.99,470.74 468.84,470.74 265.48,0 468.85,-209.97 468.85,-470.74l0 -957.49c5.63,-249.5 203.35,-447.18 451.87,-447.18 242.92,0 446.26,197.68 446.26,447.18l0 957.49c0,260.78 214.7,470.74 468.9,470.74 259.81,0 474.47,-209.97 474.47,-470.74l0 -923.61c0,-769.17 -621.34,-1390.55 -1389.62,-1390.55zm2129.64 0c-259.85,0 -468.84,209.97 -468.84,475.44l0 1834.03c0,265.47 208.99,475.44 468.84,475.44 259.85,0 474.47,-209.97 474.47,-475.44l0 -1834.03c0,-265.47 -214.62,-475.44 -474.47,-475.44zm0 -401.06c259.85,0 474.47,-209 474.47,-474.51 0,-254.2 -214.62,-463.2 -474.47,-463.2 -259.85,0 -468.84,209 -468.84,463.2 0,265.51 208.99,474.51 468.84,474.51z"/>
   <path class="fil1" d="M12450.4 1575.71c-156.85,-724.52 -1035.6,-434.39 -1035.6,-434.39 -25.41,7.83 -54.18,17.99 -86.96,31.19 -589.39,238.89 -1170.86,687.24 -1777.89,1370.88 -342.45,386.22 -654.76,795.75 -932.93,1226.32 -443.27,683.43 -802.29,1417.75 -1070.98,2187.12 -137.06,391.84 -397.54,733.15 -753.99,947.35 -297.67,179.11 -554.97,217.89 -665.07,225.26 -36.18,3.65 -56.52,2.77 -56.52,2.77 27.76,-141.67 58.36,-282.08 91.82,-421.98 406.89,-1716.26 1209.92,-3316.68 2344.43,-4668.65 67.84,-81.08 137.1,-161.62 207.86,-240.83 723.59,-814.6 1441.27,-1359.43 2193.16,-1664.23 703.43,-285.05 1120.08,-62.72 1317.72,114.88 0,0 0.76,0.67 0.8,1.33 9.6,7.84 17.77,15.73 25.95,23.61 63.94,61.88 127.45,139.19 178.77,234.74 126.91,233.69 184.85,575.84 19.41,1064.61z"/>
   <path class="fil2" d="M12450.4 1575.71c-0.54,2.14 -1.77,5.03 -2.35,7.17 -10.1,29.31 -20.92,58.65 -32.33,89.43 -36.26,93.91 -73.91,187.86 -113.06,280.52 -282.04,665.23 -650.1,1296.51 -1088.81,1871.93 -342.61,-64.47 -650.22,-59.02 -905.63,-24.53 -463.62,63.23 -756.17,223.13 -776.51,234.2 669.39,-636.38 1221,-1402.69 1615.81,-2238.56 60.16,-126.15 116.76,-254.15 169.04,-383.33 18.87,-46.62 37.02,-93.25 55.18,-139.83 19.91,-52.32 34.04,-95.84 43.06,-131.39 0,0 227.74,-75.47 471.9,-53.29 235.71,20.64 486.72,131.98 563.7,487.68z"/>
   <path class="fil3" d="M11075.7 5242.59c58.87,-79.15 71.53,-124.01 72.15,-147.87 0.46,-49.72 -105.94,-164.98 -259.89,-199.69 -4.99,-1.09 -10.65,-2.14 -16.31,-3.18 -152.31,-30.61 -328.28,-12.87 -510.9,22.05 -104.48,19.66 -210.72,45.03 -316.29,69.68 -245.56,58.35 -500.18,-54.88 -620.8,-277.05 -29.14,-52.82 -47.92,-108.37 -58.35,-165.1 -33.54,-182.71 25.44,-373.85 165.05,-506.24 0,0 0.68,-0.04 1.34,-0.76 22.35,-12.58 392.17,-213.56 963.66,-251.93 19.49,-1.89 39.74,-2.43 59.95,-3.64 98.36,-5.33 202,-4.61 310.88,2.01 0,0 189.42,271.88 301.03,598.9 101.42,297.51 138.44,640.25 -91.52,862.83z"/>
   <path class="fil4" d="M12265.04 5110.57c-7.12,514.8 -333.55,888.1 -617.47,1155.25 -423.45,400.22 -895.32,753.02 -1399.18,1051.07 -977.7,366.14 -1471.42,73.62 -1690.64,-159.31 -95.84,-102.63 -139.9,-193.74 -148,-212.1 -0.83,-2.05 -1.63,-3.44 -1.63,-3.44 915.28,-311.26 1769.84,-825.93 2472.59,-1488.82 94,-88.29 155.55,-157.14 195,-210.63 481.68,-466.75 -209.51,-1461.72 -209.51,-1461.72l0.68 -0.04c47.08,2.72 94.91,7.5 143.6,13.66 66.2,7.12 133.99,16.98 203.38,30.27 163.84,46.71 325.93,122.89 471.37,223.89 336.2,234.9 586.92,604.52 579.82,1061.93z"/>
  </g>
 </g>
</svg>
