<?xml version="1.0" encoding="UTF-8"?>
<!DOCTYPE svg PUBLIC "-//W3C//DTD SVG 1.1//EN" "http://www.w3.org/Graphics/SVG/1.1/DTD/svg11.dtd">
<!-- Creator: CorelDRAW -->
<svg xmlns="http://www.w3.org/2000/svg" xml:space="preserve" width="255.88mm" height="72.9584mm" version="1.1" style="shape-rendering:geometricPrecision; text-rendering:geometricPrecision; image-rendering:optimizeQuality; fill-rule:evenodd; clip-rule:evenodd"
viewBox="0 0 26820.48 7647.25"
 xmlns:xlink="http://www.w3.org/1999/xlink"
 xmlns:xodm="http://www.corel.com/coreldraw/odm/2003">
 <defs>
  <style type="text/css">
   <![CDATA[
    .fil0 {fill:#201E1E;fill-rule:nonzero}
   ]]>
  </style>
 </defs>
 <g id="Capa_x0020_1">
  <metadata id="CorelCorpID_0Corel-Layer"/>
  <path class="fil0" d="M15268.56 4467.17c-271.09,0 -484.46,213.38 -484.46,478.69l0 980.43c-5.78,253.75 -201.87,455.62 -455.62,455.62 -259.53,0 -461.39,-201.87 -461.39,-455.62l0 -980.43c0,-265.31 -213.38,-478.69 -484.46,-478.69 -271.03,0 -478.69,213.38 -478.69,478.69l0 940.07c0,790.14 640.19,1424.54 1424.54,1424.54 772.84,0 1424.54,-634.4 1424.54,-1424.54l0 -940.07c0,-265.31 -219.2,-478.69 -484.46,-478.69zm-2746.31 750.58c-7.27,525.59 -340.55,906.73 -630.42,1179.48 -432.33,408.62 -914.1,768.81 -1428.52,1073.11 -998.2,373.82 -1502.27,75.16 -1726.1,-162.65 -97.85,-104.79 -142.83,-197.8 -151.1,-216.55 -0.85,-2.1 -1.67,-3.51 -1.67,-3.51 934.47,-317.78 1806.95,-843.25 2524.45,-1520.04 95.97,-90.14 158.81,-160.43 199.09,-215.05 60.1,-80.81 73.03,-126.61 73.67,-150.97 0.47,-50.76 -108.16,-168.44 -265.34,-203.88 -5.09,-1.11 -10.87,-2.18 -16.66,-3.25 -155.51,-31.26 -335.16,-13.14 -521.61,22.51 -106.67,20.07 -215.14,45.97 -322.92,71.14 -250.71,59.58 -510.67,-56.03 -633.82,-282.86 -29.75,-53.93 -48.93,-110.64 -59.58,-168.57 -34.24,-186.54 25.97,-381.69 168.51,-516.86 0,0 0.69,-0.04 1.37,-0.78 683.43,-649.73 1246.6,-1432.11 1649.7,-2285.51 61.42,-128.8 119.21,-259.48 172.58,-391.36 19.27,-47.6 37.8,-95.2 56.34,-142.76 20.32,-53.41 34.76,-97.85 43.96,-134.14 -25.94,8 -55.31,18.36 -88.78,31.84 -601.75,243.9 -1195.41,701.65 -1815.17,1399.63 -349.64,394.32 -668.49,812.43 -952.5,1252.03 -452.57,697.76 -819.11,1447.49 -1093.44,2232.99 -139.93,400.05 -405.88,748.53 -769.8,967.22 -303.92,182.86 -566.61,222.46 -679.01,229.99 -36.94,3.73 -57.7,2.83 -57.7,2.83 28.34,-144.64 59.59,-287.99 93.75,-430.83 415.42,-1752.25 1235.3,-3386.24 2393.59,-4766.56 69.26,-82.78 139.97,-165.01 212.22,-245.88 738.77,-831.69 1471.5,-1387.94 2239.16,-1699.13 718.18,-291.02 1143.57,-64.03 1345.35,117.29 0,0 0.78,0.68 0.82,1.36 9.8,8.01 18.14,16.06 26.5,24.11 65.28,63.17 130.12,142.11 182.52,239.66 129.57,238.59 188.72,587.92 19.82,1086.94 -0.56,2.18 -1.8,5.14 -2.4,7.32 -10.31,29.93 -21.36,59.88 -33.01,91.31 -37.02,95.88 -75.46,191.8 -115.43,286.4 -287.95,679.18 -663.73,1323.7 -1111.64,1911.18 167.28,47.69 332.76,125.47 481.26,228.58 343.25,239.83 599.23,617.2 591.98,1084.2zm-9223.38 -785.6c-363.33,0 -692.06,138.43 -940.04,357.59 -248.01,-219.16 -576.74,-357.59 -934.34,-357.59 -778.58,0 -1424.5,634.41 -1424.5,1419.71l0 942.98c0,266.24 213.39,480.62 478.69,480.62 271.09,0 484.46,-214.37 484.46,-480.62l0 -977.57c0,-254.74 201.82,-456.56 461.35,-456.56 248.01,0 455.66,201.82 455.66,456.56l0 977.57c0,266.24 213.38,480.62 478.68,480.62 271.05,0 478.69,-214.37 478.69,-480.62l0 -977.57c5.74,-254.74 207.61,-456.56 461.35,-456.56 248.02,0 455.62,201.82 455.62,456.56l0 977.57c0,266.24 219.2,480.62 478.73,480.62 265.26,0 484.42,-214.37 484.42,-480.62l0 -942.98c0,-785.3 -634.37,-1419.71 -1418.77,-1419.71zm2174.31 0c-265.3,0 -478.68,214.37 -478.68,485.41l0 1872.5c0,271.03 213.38,485.41 478.68,485.41 265.3,0 484.42,-214.37 484.42,-485.41l0 -1872.5c0,-271.03 -219.12,-485.41 -484.42,-485.41zm0 -409.47c265.3,0 484.42,-213.39 484.42,-484.46 0,-259.53 -219.12,-472.91 -484.42,-472.91 -265.3,0 -478.68,213.39 -478.68,472.91 0,271.08 213.38,484.46 478.68,484.46zm11981.21 2353.45c-11.56,0 -23.07,5.78 -34.63,5.78 -155.68,0 -357.55,-184.53 -386.4,-317.19l0 -703.62 392.17 0c265.3,0 484.46,-173.01 484.46,-444.1 0,-259.53 -219.16,-461.35 -484.46,-461.35l-392.17 0 0 -132.7c0,-259.52 -213.39,-472.9 -478.69,-472.9 -271.09,0 -484.46,213.39 -484.46,472.9l0 1741.77c40.36,738.21 669.03,1211.11 1384.18,1234.18 265.3,0 478.68,-190.31 478.68,-461.38 0,-259.53 -213.38,-461.39 -478.68,-461.39zm3564.17 -490.21c0,-778.57 -628.63,-1412.98 -1412.98,-1412.98 -784.35,0 -1412.99,634.41 -1412.99,1412.98 0,778.58 617.12,1412.98 1401.43,1412.98 219.16,0 444.1,-98.01 576.75,-236.45 17.29,115.35 248.01,219.16 369.1,219.16 265.3,0 478.69,-213.39 478.69,-478.69l0 -917.01zm-1412.98 484.46c-253.79,0 -455.62,-230.71 -455.62,-484.46 0,-248.01 201.82,-478.69 455.62,-478.69 253.74,0 455.61,230.68 455.61,478.69 0,253.75 -201.87,484.46 -455.61,484.46zm3131.63 -980.43c184.57,0 328.75,184.53 519.05,184.53 242.23,0 472.95,-207.61 472.95,-484.46 0,-420.99 -565.24,-634.37 -992.01,-634.37 -778.57,0 -1418.76,634.37 -1418.76,1418.72 0,790.13 640.19,1424.53 1418.76,1424.53l5.79 0c415.24,0 986.22,-201.87 986.22,-628.63 0,-271.08 -230.72,-484.46 -478.73,-484.46 -184.53,0 -322.96,173.02 -513.28,173.02 -248.01,0 -455.61,-224.94 -455.61,-484.46 0,-253.75 207.6,-484.42 455.61,-484.42zm4083.27 495.97c0,-778.57 -628.67,-1412.98 -1413.02,-1412.98 -784.35,0 -1412.98,634.41 -1412.98,1412.98 0,778.58 617.11,1412.98 1401.46,1412.98 219.16,0 444.1,-98.01 576.71,-236.45 17.34,115.35 248.01,219.16 369.14,219.16 265.31,0 478.69,-213.39 478.69,-478.69l0 -917.01zm-1413.02 484.46c-253.75,0 -455.62,-230.71 -455.62,-484.46 0,-248.01 201.87,-478.69 455.62,-478.69 253.79,0 455.66,230.68 455.66,478.69 0,253.75 -201.87,484.46 -455.66,484.46z"/>
 </g>
</svg>
